HIERARCHY
ROOT hip
{
	OFFSET 0.000000 0.000000 0.000000 
	CHANNELS 6 Xposition Yposition Zposition Xrotation Zrotation Yrotation
	JOINT abdomen
	{
		OFFSET 0.000000 3.402643 0.000000 
		CHANNELS 3 Xrotation Zrotation Yrotation
		JOINT chest
		{
			OFFSET 0.000000 8.438565 -0.680529 
			CHANNELS 3 Xrotation Zrotation Yrotation
			JOINT neck
			{
				OFFSET 0.000000 10.207942 -0.272212 
				CHANNELS 3 Xrotation Zrotation Yrotation
				JOINT head
				{
					OFFSET 0.000000 3.130431 0.000000 
					CHANNELS 3 Xrotation Zrotation Yrotation
					End Site
					{
						OFFSET 0.000000 3.130435 0.000000 
					}
				}
			}
			JOINT lCollar
			{
				OFFSET 3.470700 6.669187 -0.816635 
				CHANNELS 3 Yrotation Zrotation Xrotation
				JOINT lShldr
				{
					OFFSET 3.198488 0.000000 0.000000 
					CHANNELS 3 Zrotation Yrotation Xrotation
					JOINT lForeArm
					{
						OFFSET 10.139888 0.000000 0.000000 
						CHANNELS 3 Yrotation Zrotation Xrotation
						JOINT lHand
						{
							OFFSET 8.370511 0.000000 0.000000 
							CHANNELS 3 Zrotation Yrotation Xrotation
							End Site
							{
								OFFSET 4.083176 0.000000 0.000000 
							}
						}
					}
				}
			}
			JOINT rCollar
			{
				OFFSET -3.470700 6.669187 -0.816635 
				CHANNELS 3 Yrotation Zrotation Xrotation
				JOINT rShldr
				{
					OFFSET -3.198488 0.000000 0.000000 
					CHANNELS 3 Zrotation Yrotation Xrotation
					JOINT rForeArm
					{
						OFFSET -10.139888 0.000000 0.000000 
						CHANNELS 3 Yrotation Zrotation Xrotation
						JOINT rHand
						{
							OFFSET -8.370511 0.000000 0.000000 
							CHANNELS 3 Zrotation Yrotation Xrotation
							End Site
							{
								OFFSET -4.083176 0.000000 0.000000 
							}
						}
					}
				}
			}
		}
	}
	JOINT lThigh
	{
		OFFSET 5.308129 -1.633274 1.361059 
		CHANNELS 3 Xrotation Zrotation Yrotation
		JOINT lShin
		{
			OFFSET -2.041588 -20.007561 0.000000 
			CHANNELS 3 Xrotation Zrotation Yrotation
			JOINT lFoot
			{
				OFFSET 0.000000 -19.190928 -1.224953 
				CHANNELS 3 Xrotation Yrotation Zrotation
				End Site
				{
					OFFSET 0.000000 -2.449906 4.627600 
				}
			}
		}
	}
	JOINT rThigh
	{
		OFFSET -5.308129 -1.633274 1.361059 
		CHANNELS 3 Xrotation Zrotation Yrotation
		JOINT rShin
		{
			OFFSET 2.041588 -20.007561 0.000000 
			CHANNELS 3 Xrotation Zrotation Yrotation
			JOINT rFoot
			{
				OFFSET 0.000000 -19.190928 -1.224953 
				CHANNELS 3 Xrotation Yrotation Zrotation
				End Site
				{
					OFFSET 0.000000 -2.449906 4.627600 
				}
			}
		}
	}
}
MOTION
Frames: 11
Frame Time: 0.033333
13.505154 52.360931 1.873257 -8.291017 -0.722656 155.312500 20.483105 -11.210641 -5.399528 -19.755859 9.306642 1.845703 51.063168 8.107644 2.471410 -60.361332 18.085934 -17.041014 2.000000 -2.000000 0.000000 -84.257813 8.769531 21.357422 -40.736286 -2.124515 -1.759763 15.442410 61.544403 13.205624 -2.000000 2.000000 0.000000 80.732422 -24.199219 14.345702 53.526783 1.455178 -2.024325 -36.133366 -59.341358 41.325470 -2.531011 20.428047 50.690269 15.405473 -4.578099 -1.473229 0.497530 0.743962 -5.540040 -0.011006 2.109246 -22.209095 7.322088 5.375645 0.797592 -5.125823 -12.236797 4.152184 
13.519156 52.353462 1.812853 -8.291017 -0.722656 155.478516 20.483105 -11.210641 -5.399528 -19.570313 9.296875 1.896109 51.063168 8.107644 2.471410 -60.908207 18.105467 -17.099611 2.000000 -2.000000 0.000000 -84.033203 9.287110 21.679686 -40.741573 -2.134318 -1.592586 15.794732 61.384201 12.613411 -2.000000 2.000000 0.000000 80.644531 -24.013670 14.521484 53.702843 1.445997 -2.034638 -36.119030 -59.125416 41.420147 -2.539492 20.263601 50.513077 15.381714 -4.625840 -1.467507 0.539356 0.884186 -5.456074 0.028259 2.361391 -22.187515 7.318055 5.213803 0.780496 -5.342198 -11.916073 3.896765 
13.523553 52.366837 1.762631 -8.291017 -0.722656 155.654297 20.514784 -11.130963 -5.555362 -19.570313 9.296875 1.720328 51.063168 8.107644 2.471410 -61.669922 18.115234 -16.940323 2.000000 -2.000000 0.000000 -84.257813 9.492188 21.425781 -40.566353 -2.233520 -1.616104 16.604334 61.535122 12.739573 -2.000000 2.000000 0.000000 80.439453 -24.003908 14.824219 53.878902 1.436817 -2.044950 -36.119030 -59.125416 41.420147 -2.541533 20.271021 50.337540 15.214726 -4.635194 -1.483827 0.558981 0.667829 -5.390572 0.291995 2.127442 -22.214188 7.170205 5.576222 0.326331 -5.324121 -12.069771 4.023475 
13.528994 52.356293 1.713336 -8.115234 -0.722656 155.830078 20.514784 -11.130963 -5.555362 -19.570313 9.296875 1.720328 51.063168 8.107644 2.471410 -62.216793 17.958984 -16.715738 2.000000 -2.000000 0.000000 -84.111328 9.687500 21.486017 -40.384438 -2.133694 -1.749448 17.172798 61.740936 12.801826 -2.000000 2.000000 0.000000 80.029297 -23.759766 15.415984 54.054684 1.436817 -2.044950 -35.728294 -59.531982 40.954094 -2.143268 20.170864 50.594315 15.051682 -4.635910 -1.452047 0.512513 0.811127 -5.285481 0.291994 2.127436 -22.214188 6.802952 5.581006 0.304026 -5.294399 -12.028440 4.268416 
13.533389 52.361458 1.663994 -8.115234 -0.722656 156.005859 20.533104 -10.874604 -5.653361 -19.570313 9.296875 1.720328 51.063168 8.107644 2.471410 -62.763676 17.958984 -16.523436 2.000000 -2.000000 0.000000 -84.199219 9.853516 20.704800 -40.213989 -2.241556 -1.586296 17.245287 61.918194 12.851658 -2.000000 2.000000 0.000000 79.628906 -23.359377 15.572302 54.230743 1.427636 -2.055263 -35.733120 -59.747570 40.840019 -2.143267 20.170860 50.594318 15.051680 -4.635913 -1.452047 0.691234 0.757869 -5.345052 0.367798 2.166044 -22.019169 6.803144 5.425231 0.287848 -5.184451 -11.866863 4.393254 
13.533389 52.352406 1.631489 -8.115234 -0.722656 156.171875 20.554127 -10.785830 -5.805826 -19.570313 9.296875 1.720328 51.063168 8.107644 2.471410 -63.320313 18.134766 -16.259766 2.000000 -2.000000 0.000000 -84.277344 10.205079 20.480247 -40.389492 -2.133177 -1.573096 17.030592 61.982635 12.777136 -2.000000 2.000000 0.000000 79.443359 -23.339842 15.683595 54.406540 1.417887 -2.055830 -36.012276 -59.865623 41.288486 -2.148861 19.980442 50.581150 15.051682 -4.635906 -1.452047 0.513709 0.389174 -5.328284 0.377898 2.185367 -22.193346 6.803162 5.425209 0.287847 -5.371891 -11.868826 4.565866 
13.530957 52.343693 1.583790 -8.115234 -0.722656 156.171875 20.554127 -10.785830 -5.805826 -19.570313 9.296875 1.544546 51.063168 8.107644 2.471410 -63.320313 18.310547 -16.113281 2.000000 -2.000000 0.000000 -84.345703 10.390625 19.863281 -40.566093 -2.232949 -1.606359 16.906876 62.107414 13.462784 -2.000000 2.000000 0.000000 79.277344 -23.417969 15.927734 54.406540 1.417887 -2.055830 -36.233215 -60.010952 41.610016 -2.148860 19.980442 50.581150 15.051971 -4.635991 -1.442321 0.508409 0.397330 -5.325355 0.367798 2.166044 -22.019169 6.828685 5.430102 0.105409 -5.578790 -12.054353 4.188059 
13.547043 52.344547 1.553680 -8.115234 -0.722656 156.357422 20.574999 -10.697067 -5.958309 -19.384766 9.453125 1.603167 51.063168 8.107644 2.471410 -63.144531 18.652342 -15.771484 2.000000 -2.000000 0.000000 -84.384766 10.546875 19.453127 -40.742157 -2.223770 -1.616676 16.832405 62.164692 13.738181 -2.000000 2.000000 0.000000 79.248047 -23.408203 16.324244 54.230743 1.427636 -2.055263 -36.233215 -60.010952 41.610016 -2.148864 19.980440 50.581150 15.051970 -4.635990 -1.442321 0.500440 0.426013 -5.085382 0.367800 2.166042 -22.019169 7.170332 5.420246 0.153705 -5.720278 -12.053412 4.357774 
13.572965 52.340096 1.510090 -8.115234 -0.722656 156.357422 20.595726 -10.608321 -6.112608 -19.384766 9.453125 1.603167 51.063168 8.107644 2.471410 -62.763676 18.808594 -15.517577 2.000000 -2.000000 0.000000 -84.580078 10.605469 19.054533 -40.742157 -2.223770 -1.616676 16.657679 62.171307 13.418544 -2.000000 2.000000 0.000000 79.248047 -23.408203 16.324244 54.230743 1.427636 -2.055263 -36.435921 -60.155655 41.668308 -2.150715 20.007540 50.406834 15.215014 -4.635279 -1.474890 0.479266 0.478026 -5.097509 0.404008 1.991421 -22.186613 7.155531 5.757727 0.166977 -5.810089 -12.012002 4.400159 
13.600042 52.320419 1.477515 -8.115234 -0.722656 156.357422 20.598476 -10.781633 -6.179559 -19.384766 9.453125 1.603167 51.063168 8.107644 2.471410 -62.578125 18.818357 -15.455833 2.000000 -2.000000 0.000000 -84.492188 10.175780 19.220476 -40.742157 -2.223770 -1.616676 16.906876 62.107414 13.462784 -2.000000 2.000000 0.000000 79.443359 -23.623049 16.269531 54.054684 1.436817 -2.044950 -36.291176 -59.983738 41.511032 -2.150724 20.007544 50.406834 15.215014 -4.635280 -1.474890 0.482365 0.422639 -5.326674 0.404008 1.991421 -22.186613 7.155531 5.757726 0.166977 -5.984607 -12.001058 4.581184 
13.627351 52.324413 1.437570 -8.291017 -0.722656 156.533203 20.618944 -10.692914 -6.332037 -19.560547 9.462891 1.573871 51.063168 8.107644 2.471410 -62.382816 18.642576 -15.380862 2.000000 -2.000000 0.000000 -84.609375 9.794922 19.130861 -40.565533 -2.133747 -1.582841 16.576380 61.993938 13.349467 -2.000000 2.000000 0.000000 79.443359 -23.623049 16.269531 53.878902 1.436817 -2.044950 -36.713547 -59.803757 41.903027 -2.150718 20.007540 50.406834 15.214726 -4.635200 -1.483827 0.485750 0.420712 -5.348167 0.410244 2.001851 -22.371469 7.352280 5.756852 0.349842 -5.993697 -11.967031 4.573963 
